<?xml version="1.0" encoding="UTF-8"?>
<svg version="1.1" xmlns="http://www.w3.org/2000/svg" width="173" height="94">
<path d="M0 0 C1.15371094 -0.01417969 2.30742188 -0.02835937 3.49609375 -0.04296875 C6.5625 0.1875 6.5625 0.1875 9.5625 2.1875 C10.26302461 4.850563 10.33994818 7.42785737 10.5625 10.1875 C11.63628906 10.15269531 12.71007812 10.11789062 13.81640625 10.08203125 C15.25258839 10.05387082 16.68878762 10.02657309 18.125 10 C18.82947266 9.97486328 19.53394531 9.94972656 20.25976562 9.92382812 C25.48115145 9.85164307 28.85186764 10.97004168 33.5625 13.1875 C36.37988941 12.9862579 38.27519265 12.31791754 40.8359375 11.15551758 C45.89717703 9.35861439 51.24552467 9.86042496 56.5625 9.875 C57.738125 9.85888672 58.91375 9.84277344 60.125 9.82617188 C61.259375 9.82552734 62.39375 9.82488281 63.5625 9.82421875 C64.59375 9.82123779 65.625 9.81825684 66.6875 9.81518555 C70.28625569 10.28122685 72.97817473 11.60317473 75.5625 14.1875 C75.65554018 15.66104348 75.67996265 17.13900591 75.67602539 18.61547852 C75.67594986 19.55637833 75.67587433 20.49727814 75.67579651 21.46669006 C75.67063522 22.48959641 75.66547394 23.51250275 75.66015625 24.56640625 C75.65803383 26.129105 75.65803383 26.129105 75.65586853 27.72337341 C75.6502508 31.06561094 75.6376953 34.40778257 75.625 37.75 C75.61998728 40.00976466 75.61542398 42.26953037 75.61132812 44.52929688 C75.60027561 50.08205391 75.58352024 55.63477225 75.5625 61.1875 C74.76457031 61.30996094 73.96664062 61.43242188 73.14453125 61.55859375 C70.40441647 61.9102493 70.40441647 61.9102493 69.25 64.25 C68.9096875 65.2090625 68.9096875 65.2090625 68.5625 66.1875 C67.12594146 66.26881463 65.6880517 66.32683559 64.25 66.375 C63.04923828 66.42720703 63.04923828 66.42720703 61.82421875 66.48046875 C59.5625 66.1875 59.5625 66.1875 58.17456055 64.69189453 C56.15837021 62.81036116 55.22496124 62.81275529 52.5078125 62.82421875 C51.72792969 62.82486328 50.94804687 62.82550781 50.14453125 62.82617188 C49.33371094 62.84228516 48.52289063 62.85839844 47.6875 62.875 C46.88441406 62.87177734 46.08132812 62.86855469 45.25390625 62.86523438 C40.85165798 62.90512295 37.61680048 63.33804272 33.5625 65.1875 C30.16321157 65.61794993 26.76832367 65.81522302 23.6640625 64.19921875 C21.01816669 62.92545106 18.92739588 62.81770848 16 62.75 C15.04996094 62.71003906 14.09992188 62.67007813 13.12109375 62.62890625 C10.36676556 62.91745366 10.36676556 62.91745366 9.09765625 65.421875 C8.59105469 66.33453125 8.08445312 67.2471875 7.5625 68.1875 C5.58592628 69.89689152 3.6950533 71.39216662 1.5625 72.875 C0.95293457 73.30071289 0.34336914 73.72642578 -0.28466797 74.16503906 C-20.10818869 87.64443979 -39.1782799 94.69711563 -63.125 94.8125 C-64.23658981 94.82352753 -64.23658981 94.82352753 -65.37063599 94.83477783 C-75.20289638 94.88574407 -83.30814807 94.29098154 -91.25 87.9375 C-96.31307488 81.57249158 -98.12684394 75.97334704 -97.9375 67.875 C-97.92468994 67.03904297 -97.91187988 66.20308594 -97.89868164 65.34179688 C-97.68072674 58.67250627 -96.5850686 53.13290736 -93.4375 47.1875 C-92.99792969 46.32511719 -92.55835937 45.46273437 -92.10546875 44.57421875 C-81.50159915 26.02415826 -63.0239332 13.5597848 -43.4375 6.1875 C-42.61636719 5.84847656 -41.79523437 5.50945313 -40.94921875 5.16015625 C-35.34633149 3.00060645 -29.40079885 2.14774533 -23.4375 3.1875 C-21.4375 6.1875 -21.4375 6.1875 -21.4375 10.1875 C-20.81101562 10.24808594 -20.18453125 10.30867187 -19.5390625 10.37109375 C-18.72179687 10.45488281 -17.90453125 10.53867188 -17.0625 10.625 C-15.84433594 10.74681641 -15.84433594 10.74681641 -14.6015625 10.87109375 C-12.4375 11.1875 -12.4375 11.1875 -10.4375 12.1875 C-10.47875 11.115 -10.52 10.0425 -10.5625 8.9375 C-10.44892928 5.53037835 -10.33285315 3.92523233 -8.4375 1.1875 C-5.60362485 -0.22943757 -3.15720627 0.0175987 0 0 Z M-53.4375 28.1875 C-61.790316 35.81045829 -68.86365608 43.3678088 -69.5703125 55.15234375 C-69.28240724 59.56406851 -67.32238192 62.24898888 -64.375 65.375 C-52.32847674 72.80796116 -39.67945394 70.39447582 -26.671875 67.35546875 C-22.71449933 66.34992084 -19.14159838 64.89746076 -15.4375 63.1875 C-15.4375 62.8575 -15.4375 62.5275 -15.4375 62.1875 C-16.3253418 62.19273682 -17.21318359 62.19797363 -18.12792969 62.20336914 C-21.43034518 62.22043868 -24.73271359 62.23296363 -28.03515625 62.24243164 C-29.46289816 62.24745206 -30.89063496 62.25426972 -32.31835938 62.26293945 C-34.37371079 62.27510553 -36.42899407 62.28075128 -38.484375 62.28515625 C-40.33820801 62.29301147 -40.33820801 62.29301147 -42.22949219 62.30102539 C-44.8520671 62.20821737 -46.95394594 61.97106673 -49.4375 61.1875 C-49.64108177 55.8717538 -49.52116476 51.06104027 -48.25 45.875 C-47.34977976 42.09605179 -47.34977976 42.09605179 -48.75 38.5 C-49.306875 37.736875 -49.86375 36.97375 -50.4375 36.1875 C-50.7871418 33.85655466 -51.12304487 31.52345238 -51.4375 29.1875 C-52.0975 28.8575 -52.7575 28.5275 -53.4375 28.1875 Z " fill="#F1D492" transform="translate(97.4375,-0.1875)"/>
<path d="M0 0 C-0.33 0.99 -0.66 1.98 -1 3 C-3.4140625 3.88671875 -3.4140625 3.88671875 -6.625 4.6875 C-22.95713796 9.44582278 -37.55614829 18.66838352 -46.01171875 33.80859375 C-47.98706448 38.1887082 -48.18802507 42.07194264 -48.25 46.875 C-48.27578125 48.06867187 -48.3015625 49.26234375 -48.328125 50.4921875 C-47.86496335 55.44360612 -46.30742574 58.72889164 -42.75 62.1875 C-35.64065544 66.87320437 -29.95285105 67.5200822 -21.5625 67.4375 C-19.96776855 67.42722778 -19.96776855 67.42722778 -18.34082031 67.41674805 C-1.79180262 67.08251297 12.48915124 61.56962111 27.0390625 53.91796875 C29 53 29 53 31 53 C31 53.66 31 54.32 31 55 C28.70277825 56.78706746 26.40984437 58.43868503 24 60.0625 C23.27594971 60.55129639 22.55189941 61.04009277 21.8059082 61.54370117 C8.42242848 70.46457209 -4.36612123 76.92502119 -20 81 C-20.73758545 81.19432617 -21.4751709 81.38865234 -22.23510742 81.58886719 C-32.84045566 84.18100328 -46.11272425 85.13288963 -56.12109375 80.20703125 C-58.85792804 78.44885704 -60.93357735 76.50475473 -63 74 C-63.5775 73.319375 -64.155 72.63875 -64.75 71.9375 C-68.27672202 66.47108087 -67.49680158 59.22081974 -67 53 C-63.38306954 37.15001176 -48.27105453 22.60105715 -34.9375 14.0625 C-12.0768908 -0 -12.0768908 -0 0 0 Z " fill="#080705" transform="translate(72,7)"/>
<path d="M0 0 C3.5625 0.1875 3.5625 0.1875 5.5625 2.1875 C5.7578125 4.3515625 5.7578125 4.3515625 5.6875 6.8125 C5.66945313 7.62976563 5.65140625 8.44703125 5.6328125 9.2890625 C5.59800781 10.22878906 5.59800781 10.22878906 5.5625 11.1875 C6.14217529 11.17178955 6.72185059 11.1560791 7.3190918 11.13989258 C9.96262739 11.07727209 12.60600655 11.03842482 15.25 11 C16.61801758 10.96229492 16.61801758 10.96229492 18.01367188 10.92382812 C24.21281181 10.85620114 27.66204607 11.58709303 32.375 15.8125 C34.23500905 19.53251811 34.10934209 23.11170366 33.5625 27.1875 C32.25 30.0625 32.25 30.0625 30.5625 32.1875 C30.17860107 32.72028564 29.79470215 33.25307129 29.39916992 33.80200195 C26.54145652 35.95772753 24.01530008 35.52365674 20.48828125 35.48046875 C19.8044487 35.47622391 19.12061615 35.47197906 18.4160614 35.46760559 C16.23530439 35.45083353 14.05547691 35.41318657 11.875 35.375 C10.39519565 35.35995114 8.9153768 35.34626308 7.43554688 35.33398438 C3.81089664 35.30093569 0.18678906 35.24916446 -3.4375 35.1875 C-4.81875018 32.42499964 -4.62829306 30.24018901 -4.4375 27.1875 C-1.79758732 24.54758732 -0.45803704 24.88509203 3.2265625 24.7734375 C4.34804687 24.73476563 5.46953125 24.69609375 6.625 24.65625 C7.800625 24.6253125 8.97625 24.594375 10.1875 24.5625 C11.37085937 24.52382813 12.55421875 24.48515625 13.7734375 24.4453125 C16.70296691 24.35081155 19.63248597 24.26525442 22.5625 24.1875 C22.8925 23.1975 23.2225 22.2075 23.5625 21.1875 C22.92223877 21.20844727 22.28197754 21.22939453 21.62231445 21.25097656 C18.70670425 21.33439284 15.79134548 21.38623969 12.875 21.4375 C11.86759766 21.47101562 10.86019531 21.50453125 9.82226562 21.5390625 C2.3121251 21.63820627 2.3121251 21.63820627 -1.58203125 19.296875 C-4.85450758 15.57658611 -4.57245991 13.02029572 -4.5625 8.125 C-4.56507812 6.85527344 -4.56765625 5.58554688 -4.5703125 4.27734375 C-4.39676549 0.23982357 -4.39676549 0.23982357 0 0 Z " fill="#090805" transform="translate(97.4375,4.8125)"/>
<path d="M0 0 C1.04607422 -0.020625 2.09214844 -0.04125 3.16992188 -0.0625 C4.18248047 -0.06765625 5.19503906 -0.0728125 6.23828125 -0.078125 C7.62527222 -0.09214355 7.62527222 -0.09214355 9.0402832 -0.10644531 C12.9977503 0.426424 15.62854623 2.23949509 18.48046875 4.9609375 C20.19600501 8.2143493 20.08582436 11.29097483 20 14.875 C20.00322266 15.555625 20.00644531 16.23625 20.00976562 16.9375 C19.95492788 21.98257212 19.95492788 21.98257212 17.6875 24.25 C14.6875 24.5 14.6875 24.5 11.6875 24.25 C9.6875 22.25 9.6875 22.25 9.4921875 19.4296875 C9.58984375 14.83984375 9.58984375 14.83984375 9.6875 10.25 C1.2725 10.745 1.2725 10.745 -7.3125 11.25 C-7.3125 11.91 -7.3125 12.57 -7.3125 13.25 C-6.32507812 13.29898437 -5.33765625 13.34796875 -4.3203125 13.3984375 C-3.03898437 13.47320312 -1.75765625 13.54796875 -0.4375 13.625 C0.83867188 13.69460937 2.11484375 13.76421875 3.4296875 13.8359375 C6.6875 14.25 6.6875 14.25 8.6875 16.25 C8.9375 19.25 8.9375 19.25 8.6875 22.25 C5.60876335 25.32873665 1.99757211 24.61851287 -2.125 24.625 C-2.93259766 24.64949219 -3.74019531 24.67398438 -4.57226562 24.69921875 C-8.60889649 24.71905477 -10.76396043 24.59147496 -14.26171875 22.4140625 C-18.29171514 18.16145679 -18.79790258 15.41616967 -18.70703125 9.765625 C-18.06918449 5.6985625 -16.2930206 4.01762628 -13.3125 1.25 C-9.34565769 -0.73342115 -4.36156262 0.02126295 0 0 Z " fill="#0A0806" transform="translate(69.3125,15.75)"/>
<path d="M0 0 C1.15435547 -0.00386719 2.30871094 -0.00773438 3.49804688 -0.01171875 C5.30692383 0.00568359 5.30692383 0.00568359 7.15234375 0.0234375 C8.36212891 0.01183594 9.57191406 0.00023437 10.81835938 -0.01171875 C11.97142578 -0.00785156 13.12449219 -0.00398437 14.3125 0 C15.37218994 0.00338379 16.43187988 0.00676758 17.52368164 0.01025391 C18.37051514 0.13835449 19.21734863 0.26645508 20.08984375 0.3984375 C22.2390016 3.62217427 22.47271178 4.66547424 22.08984375 8.3984375 C19.60926747 10.87901378 18.72791911 10.68862755 15.30078125 10.8125 C14.35976562 10.85117187 13.41875 10.88984375 12.44921875 10.9296875 C11.464375 10.960625 10.47953125 10.9915625 9.46484375 11.0234375 C7.97597656 11.08144531 7.97597656 11.08144531 6.45703125 11.140625 C4.0014899 11.2350689 1.54595965 11.32063625 -0.91015625 11.3984375 C-1.24015625 12.3884375 -1.57015625 13.3784375 -1.91015625 14.3984375 C-1.25418457 14.38796387 -0.59821289 14.37749023 0.07763672 14.36669922 C3.04000033 14.32521247 6.00230291 14.29913488 8.96484375 14.2734375 C9.99738281 14.25667969 11.02992188 14.23992188 12.09375 14.22265625 C13.07988281 14.21621094 14.06601563 14.20976562 15.08203125 14.203125 C16.44884033 14.18741455 16.44884033 14.18741455 17.84326172 14.17138672 C20.08984375 14.3984375 20.08984375 14.3984375 22.08984375 16.3984375 C22.33984375 19.3984375 22.33984375 19.3984375 22.08984375 22.3984375 C18.38199733 26.10628392 12.28585552 24.85542291 7.27734375 24.8984375 C5.49360352 24.9603125 5.49360352 24.9603125 3.67382812 25.0234375 C-4.88290546 25.10030877 -4.88290546 25.10030877 -7.81396484 23.09765625 C-11.2499669 19.03524173 -12.19930677 15.67323575 -12.1328125 10.4296875 C-11.81193957 7.50242564 -10.69098416 5.70691812 -8.91015625 3.3984375 C-8.29829468 2.60058838 -8.29829468 2.60058838 -7.67407227 1.78662109 C-5.13031577 -0.21528887 -3.20639904 0.01022775 0 0 Z " fill="#080705" transform="translate(145.91015625,15.6015625)"/>
<path d="M0 0 C5.61 0 11.22 0 17 0 C17.87890625 6.93359375 17.87890625 6.93359375 18 9 C17 10 17 10 14.93359375 10.09765625 C14.10988281 10.08605469 13.28617188 10.07445312 12.4375 10.0625 C11.61121094 10.05347656 10.78492187 10.04445313 9.93359375 10.03515625 C9.29550781 10.02355469 8.65742187 10.01195312 8 10 C8 7.36 8 4.72 8 2 C6.35 2 4.7 2 3 2 C3 4.64 3 7.28 3 10 C2.01 10 1.02 10 0 10 C0 6.7 0 3.4 0 0 Z " fill="#554B33" transform="translate(87,47)"/>
<path d="M0 0 C6.0546875 -0.1953125 6.0546875 -0.1953125 8 0 C10 2 10 2 10.25 5 C10 8 10 8 8 10 C5.375 10.125 5.375 10.125 3 10 C3 11.32 3 12.64 3 14 C2.01 14 1.02 14 0 14 C0 9.38 0 4.76 0 0 Z " fill="#201C13" transform="translate(160,47)"/>
<path d="M0 0 C3 0.25 3 0.25 5 2.25 C5.25 5.25 5.25 5.25 5 8.25 C3 10.25 3 10.25 0 10.5 C-3 10.25 -3 10.25 -5 8.25 C-5.25 5.25 -5.25 5.25 -5 2.25 C-3 0.25 -3 0.25 0 0 Z " fill="#252016" transform="translate(111,46.75)"/>
<path d="M0 0 C3.3 0 6.6 0 10 0 C10 3.3 10 6.6 10 10 C8.68 10 7.36 10 6 10 C6 7.69 6 5.38 6 3 C5.34 3 4.68 3 4 3 C4 4.98 4 6.96 4 9 C2.35 9.33 0.7 9.66 -1 10 C-0.67 6.7 -0.34 3.4 0 0 Z " fill="#373021" transform="translate(53,47)"/>
<path d="M0 0 C0.99 0 1.98 0 3 0 C3 2.31 3 4.62 3 7 C3.99 7 4.98 7 6 7 C6 4.69 6 2.38 6 0 C6.99 0 7.98 0 9 0 C9.33 4.29 9.66 8.58 10 13 C9.01 13 8.02 13 7 13 C7 12.01 7 11.02 7 10 C4.69 10 2.38 10 0 10 C0 6.7 0 3.4 0 0 Z " fill="#252116" transform="translate(118,47)"/>
<path d="M0 0 C0.99 0 1.98 0 3 0 C3.33 0.66 3.66 1.32 4 2 C4.66 1.34 5.32 0.68 6 0 C6.99 0 7.98 0 9 0 C9 3.3 9 6.6 9 10 C8.01 10 7.02 10 6 10 C5.67 9.01 5.34 8.02 5 7 C4.01 8.485 4.01 8.485 3 10 C2.01 10 1.02 10 0 10 C0 6.7 0 3.4 0 0 Z " fill="#15130D" transform="translate(65,47)"/>
<path d="M0 0 C0.99 0 1.98 0 3 0 C3 0.99 3 1.98 3 3 C3.66 3 4.32 3 5 3 C5 2.01 5 1.02 5 0 C6.32 0 7.64 0 9 0 C9 3.3 9 6.6 9 10 C8.01 10 7.02 10 6 10 C6 8.68 6 7.36 6 6 C5.01 6 4.02 6 3 6 C3 7.32 3 8.64 3 10 C2.01 10 1.02 10 0 10 C0 6.7 0 3.4 0 0 Z " fill="#342D1F" transform="translate(140,47)"/>
<path d="M0 0 C0.99 0 1.98 0 3 0 C3 0.99 3 1.98 3 3 C3.99 3 4.98 3 6 3 C6 2.01 6 1.02 6 0 C6.99 0 7.98 0 9 0 C9 3.3 9 6.6 9 10 C8.01 10 7.02 10 6 10 C6 8.68 6 7.36 6 6 C5.01 6 4.02 6 3 6 C3 7.32 3 8.64 3 10 C2.01 10 1.02 10 0 10 C0 6.7 0 3.4 0 0 Z " fill="#262217" transform="translate(76,47)"/>
<path d="M0 0 C-0.33 0.99 -0.66 1.98 -1 3 C-3.73046875 4.0625 -3.73046875 4.0625 -7.1875 5 C-10.77541445 5.98411368 -13.92108418 6.96001978 -17.24609375 8.64453125 C-20.40827177 10.20095078 -21.70883566 10.06478846 -25 9 C-21.20524557 5.5568032 -16.71626 4.34975004 -11.9375 2.8125 C-11.12216797 2.53986328 -10.30683594 2.26722656 -9.46679688 1.98632812 C-3.40824718 0 -3.40824718 0 0 0 Z " fill="#413A28" transform="translate(72,7)"/>
<path d="M0 0 C3.0625 0.1875 3.0625 0.1875 5.0625 2.1875 C5.0625 3.1775 5.0625 4.1675 5.0625 5.1875 C3.0825 5.1875 1.1025 5.1875 -0.9375 5.1875 C0.0525 4.8575 1.0425 4.5275 2.0625 4.1875 C2.0625 3.5275 2.0625 2.8675 2.0625 2.1875 C1.0725 2.5175 0.0825 2.8475 -0.9375 3.1875 C-0.9375 4.5075 -0.9375 5.8275 -0.9375 7.1875 C0.7125 7.1875 2.3625 7.1875 4.0625 7.1875 C3.7325 8.1775 3.4025 9.1675 3.0625 10.1875 C1.0825 10.1875 -0.8975 10.1875 -2.9375 10.1875 C-4.42856457 7.20537087 -4.05691467 4.47140342 -3.9375 1.1875 C-2.9375 0.1875 -2.9375 0.1875 0 0 Z " fill="#1F1B13" transform="translate(132.9375,46.8125)"/>
<path d="M0 0 C1.54571278 2.31856917 2.79618552 4.50638429 4 7 C4.66 7 5.32 7 6 7 C6.66 6.01 7.32 5.02 8 4 C8.38218767 5.65614657 8.71395102 7.32457024 9 9 C8 10 8 10 5.4375 10.0625 C4.633125 10.041875 3.82875 10.02125 3 10 C3 11.32 3 12.64 3 14 C2.01 14 1.02 14 0 14 C0 9.38 0 4.76 0 0 Z " fill="#1E1A12" transform="translate(160,47)"/>
<path d="M0 0 C2.97 0 5.94 0 9 0 C9 0.66 9 1.32 9 2 C8.01 2 7.02 2 6 2 C6 4.64 6 7.28 6 10 C5.01 10 4.02 10 3 10 C3 7.36 3 4.72 3 2 C2.01 2 1.02 2 0 2 C0 1.34 0 0.68 0 0 Z " fill="#16130D" transform="translate(150,47)"/>
<path d="M0 0 C0.66 0 1.32 0 2 0 C2.33 2.64 2.66 5.28 3 8 C1.68 7.67 0.36 7.34 -1 7 C-0.67 6.34 -0.34 5.68 0 5 C-1.32 5 -2.64 5 -4 5 C-4 5.99 -4 6.98 -4 8 C-4.66 8 -5.32 8 -6 8 C-6 5.69 -6 3.38 -6 1 C-5.67 1.66 -5.34 2.32 -5 3 C-3.35 3 -1.7 3 0 3 C0 2.01 0 1.02 0 0 Z " fill="#100E0A" transform="translate(102,48)"/>
<path d="M0 0 C0.33 0 0.66 0 1 0 C1 3.3 1 6.6 1 10 C0.01 9.67 -0.98 9.34 -2 9 C-2 8.34 -2 7.68 -2 7 C-3.65 7.33 -5.3 7.66 -7 8 C-7.33 6.35 -7.66 4.7 -8 3 C-6.68 2.67 -5.36 2.34 -4 2 C-4 2.66 -4 3.32 -4 4 C-3.01 4.33 -2.02 4.66 -1 5 C-0.67 3.35 -0.34 1.7 0 0 Z " fill="#8F7E56" transform="translate(139,47)"/>
<path d="M0 0 C2.31 0 4.62 0 7 0 C7 0.66 7 1.32 7 2 C5.68 2 4.36 2 3 2 C3 4.64 3 7.28 3 10 C2.01 10 1.02 10 0 10 C0 6.7 0 3.4 0 0 Z " fill="#1F1B13" transform="translate(87,47)"/>
<path d="M0 0 C0 0.66 0 1.32 0 2 C-1.8984375 3.5078125 -1.8984375 3.5078125 -4.375 5.125 C-5.59316406 5.93324219 -5.59316406 5.93324219 -6.8359375 6.7578125 C-9 8 -9 8 -11 8 C-10.875 5.6875 -10.875 5.6875 -10 3 C-6.33634907 0.63898051 -4.40218532 0 0 0 Z " fill="#272217" transform="translate(50,16)"/>
<path d="M0 0 C0.99 0 1.98 0 3 0 C3 1.32 3 2.64 3 4 C3.99 4.33 4.98 4.66 6 5 C5.01 5 4.02 5 3 5 C3 6.65 3 8.3 3 10 C2.01 10 1.02 10 0 10 C0 6.7 0 3.4 0 0 Z " fill="#1F1B13" transform="translate(76,47)"/>
<path d="M0 0 C0.99 0 1.98 0 3 0 C3 3.3 3 6.6 3 10 C2.01 10 1.02 10 0 10 C0 8.35 0 6.7 0 5 C-0.99 4.67 -1.98 4.34 -3 4 C-2.01 4 -1.02 4 0 4 C0 2.68 0 1.36 0 0 Z " fill="#211D14" transform="translate(146,47)"/>
<path d="M0 0 C0 0.66 0 1.32 0 2 C-1.96875 3.5078125 -1.96875 3.5078125 -4.5 5.125 C-5.3353125 5.66382812 -6.170625 6.20265625 -7.03125 6.7578125 C-7.6809375 7.16773437 -8.330625 7.57765625 -9 8 C-9.33 7.34 -9.66 6.68 -10 6 C-10.66 5.67 -11.32 5.34 -12 5 C-10.37750059 4.16180842 -8.75191503 3.3295884 -7.125 2.5 C-6.22007813 2.0359375 -5.31515625 1.571875 -4.3828125 1.09375 C-2 0 -2 0 0 0 Z " fill="#332D1F" transform="translate(103,60)"/>
<path d="M0 0 C0.99 1.32 1.98 2.64 3 4 C6.0745356 3.2236068 6.0745356 3.2236068 8 1 C8.042721 2.66611905 8.04063832 4.33382885 8 6 C7 7 7 7 4 7.125 C1 7 1 7 0 6 C-0.04080783 4.00041636 -0.04254356 1.99954746 0 0 Z " fill="#12100B" transform="translate(107,50)"/>
<path d="M0 0 C0.66 0 1.32 0 2 0 C2 1.65 2 3.3 2 5 C2.66 5 3.32 5 4 5 C3.67 6.65 3.34 8.3 3 10 C2.01 10 1.02 10 0 10 C0 6.7 0 3.4 0 0 Z " fill="#0C0B07" transform="translate(65,47)"/>
<path d="M0 0 C0.66 1.32 1.32 2.64 2 4 C3.65 4 5.3 4 7 4 C6.67 4.99 6.34 5.98 6 7 C4.02 7 2.04 7 0 7 C-0.38133299 5.0085944 -0.71325582 3.00720923 -1 1 C-0.67 0.67 -0.34 0.34 0 0 Z " fill="#13100B" transform="translate(130,50)"/>
<path d="M0 0 C0.33 0.99 0.66 1.98 1 3 C1.66 3 2.32 3 3 3 C3 2.01 3 1.02 3 0 C4.32 0 5.64 0 7 0 C7 0.66 7 1.32 7 2 C7.66 2.66 8.32 3.32 9 4 C6.03 4 3.06 4 0 4 C0 2.68 0 1.36 0 0 Z " fill="#61563B" transform="translate(95,53)"/>
<path d="M0 0 C0.99 0.33 1.98 0.66 3 1 C2.67 2.65 2.34 4.3 2 6 C1.01 5.67 0.02 5.34 -1 5 C-0.67 3.35 -0.34 1.7 0 0 Z " fill="#D0B77E" transform="translate(164,49)"/>
<path d="M0 0 C0.99 0.33 1.98 0.66 3 1 C2.67 2.65 2.34 4.3 2 6 C1.01 5.67 0.02 5.34 -1 5 C-0.67 3.35 -0.34 1.7 0 0 Z " fill="#DCC185" transform="translate(110,49)"/>
<path d="M0 0 C1.485 0.99 1.485 0.99 3 2 C3 2.66 3 3.32 3 4 C3.66 4 4.32 4 5 4 C5 5.98 5 7.96 5 10 C3.5 8.625 3.5 8.625 2 7 C2 6.34 2 5.68 2 5 C1.34 5 0.68 5 0 5 C0 3.35 0 1.7 0 0 Z " fill="#524832" transform="translate(67,47)"/>
<path d="M0 0 C0 0.66 0 1.32 0 2 C-1.8125 3.0625 -1.8125 3.0625 -4 4 C-4.99 3.67 -5.98 3.34 -7 3 C-4.49955934 -0.00052879 -4.2621484 0 0 0 Z " fill="#18150E" transform="translate(50,16)"/>
</svg>
